<svg xmlns="http://www.w3.org/2000/svg" height="80px" contentScriptType="text/ecmascript" version="1.2" viewBox="0 0 90 33.75">
    <defs>
        <clipPath id="prefix__a">
            <path d="M2.012 18.234H9.93v7.918H2.012zm0 0" />
        </clipPath>
    </defs>
    <path
        d="M17.19 23.86c3.391 0 6.61-1.47 6.61-4.903 0-3.5-3.113-4.687-6.113-5.012-1.492-.171-2.504-.3-2.504-1.34 0-.796 1.012-1.144 2.05-1.144 1.317 0 2.505.281 3.52 1.059l2.118-2.7c-1.622-1.316-3.391-1.793-5.637-1.793-3.195 0-6.328 1.383-6.328 4.579 0 3.738 2.851 4.601 6.156 4.902 1.66.133 2.504.629 2.504 1.383 0 .82-.95 1.34-2.356 1.34-1.293 0-2.937-.282-4.425-1.727l-2.356 2.7c2.117 2.222 4.02 2.655 6.762 2.655zm13.471-.11c1.125 0 2.137-.191 3.09-.71l-.887-2.938c-.3.238-.753.367-1.144.367-.606 0-1.078-.281-1.078-1.035V15.89h2.437v-3.067h-2.418V9.82l-3.93.434v2.57h-1.706v3.067h1.707v3.543c0 3.347 1.793 4.316 3.93 4.316zm6.757-11.683c1.125 0 2.226-.692 2.226-1.985 0-1.297-1.101-1.988-2.226-1.988-1.102 0-2.223.691-2.223 1.988 0 1.293 1.121 1.985 2.223 1.985zm-1.985 11.425h3.992V12.824h-3.992zm11.963 5.985c3.023 0 6.023-1.278 6.023-4.73 0-.606-.148-2.075-2.094-3.22 1.23-.886 1.946-2.183 1.946-3.543 0-.949-.22-1.988-.996-2.87l1.382-1.641-2.87-2.055-1.145 1.469a6.824 6.824 0 00-2.203-.387c-3.328 0-5.942 2.094-5.942 5.442 0 3.304 2.356 5.378 5.942 5.378 1.445 0 1.922.649 1.922 1.426 0 1.035-.95 1.531-1.965 1.531-1.059 0-2.075-.386-2.012-2.027H41.65c-.024.172-.024.3-.024.453 0 3.024 2.16 4.774 5.77 4.774zm.043-9.442c-1.211 0-2.075-.797-2.075-2.093 0-1.446.864-2.204 2.075-2.204 1.144 0 2.007 1.016 2.007 2.204 0 1.445-.949 2.093-2.007 2.093zm8.224 3.457h3.95v-5.851c0-1.188.734-1.688 1.406-1.688.71 0 1.121.39 1.121 1.621v5.918h3.887v-5.875c0-1.187.715-1.597 1.383-1.597.605 0 1.101.433 1.101 1.554v5.918h3.977v-5.937c0-3.524-1.75-4.95-4.082-4.95-1.47 0-2.637.41-3.543 1.512-.54-1.011-1.598-1.488-2.723-1.488-1.059 0-2.203.434-2.852 1.36l-.277-1.165h-3.348zm27.271-10.668l-.219 1.164c-.601-.906-1.66-1.382-3.109-1.382-3.043 0-5.184 2.289-5.184 5.574 0 3.367 2.055 5.508 5.313 5.508 1.254 0 2.336-.496 3.09-1.364l.172 1.168h3.671V12.824zm-2.441 7.664c-1.274 0-2.117-.906-2.117-2.308 0-1.406.843-2.375 2.117-2.375 1.383 0 2.203.883 2.203 2.375 0 1.34-.93 2.308-2.203 2.308zm0 0" />
    <g clip-path="url(#prefix__a)">
        <path fill="#d52a30"
            d="M9.46 21.418H8.149l.93-.934c.25-.25.32-.586.16-.75l-.633-.632c-.164-.16-.5-.09-.75.16l-.933.93v-1.313c0-.356-.188-.645-.418-.645h-.89c-.235 0-.423.29-.423.645v1.312l-.93-.93c-.25-.25-.585-.32-.75-.16l-.632.633c-.16.164-.09.5.16.75l.93.934H2.652c-.355 0-.64.184-.64.418v.89c0 .235.285.419.64.419H3.97l-.93.933c-.25.25-.32.586-.16.75l.633.633c.164.164.5.09.75-.16l.93-.93v1.317c0 .355.187.64.421.64h.89c.231 0 .419-.285.419-.64V24.37l.933.93c.25.25.586.324.75.16l.633-.633c.16-.164.09-.5-.16-.75l-.93-.933h1.313c.355 0 .644-.184.644-.418v-.891c0-.234-.289-.418-.644-.418" />
    </g>
</svg>